<svg xmlns="http://www.w3.org/2000/svg" viewBox="14541.906 2098.712 34.328 39.64">
  <defs>
    <style>
      .cls-1 {
        fill: #3b9ff5;
      }
    </style>
  </defs>
  <path id="Path_2" data-name="Path 2" class="cls-1" d="M28.173,23.04a11.432,11.432,0,0,0,.457-3.22,11.658,11.658,0,0,0-.457-3.22,21.45,21.45,0,0,0,6.1-6.583l.057-.1h-.114a21.5,21.5,0,0,0-8.753,1.992,11.5,11.5,0,0,0-5.583-3.227A21.52,21.52,0,0,0,17.221.1L17.164,0,17.1.1a21.569,21.569,0,0,0-2.649,8.575A11.481,11.481,0,0,0,8.868,11.9,21.346,21.346,0,0,0,.114,9.91H0l.057.1a21.56,21.56,0,0,0,6.1,6.583,11.432,11.432,0,0,0-.457,3.22,11.658,11.658,0,0,0,.457,3.22,21.45,21.45,0,0,0-6.1,6.583L0,29.73H.207a21.542,21.542,0,0,0,8.66-1.992,11.5,11.5,0,0,0,5.583,3.227A21.648,21.648,0,0,0,17.1,39.54l.064.1.064-.1a21.569,21.569,0,0,0,2.649-8.575,11.481,11.481,0,0,0,5.583-3.227,21.586,21.586,0,0,0,8.66,1.992h.207l-.057-.1A21.541,21.541,0,0,0,28.173,23.04ZM7.268,19.82a9.916,9.916,0,0,1,.286-2.363,21.037,21.037,0,0,0,8.089,2.363,21.037,21.037,0,0,0-8.089,2.363A9.916,9.916,0,0,1,7.268,19.82Zm12.659-9.51a9.843,9.843,0,0,1,4.091,2.363,21.007,21.007,0,0,0-6.09,5.826A21.13,21.13,0,0,0,19.927,10.31ZM16.4,18.5a21.007,21.007,0,0,0-6.09-5.826A9.843,9.843,0,0,1,14.4,10.31,21.13,21.13,0,0,0,16.4,18.5Zm0,2.642a21.037,21.037,0,0,0-2,8.189,9.843,9.843,0,0,1-4.091-2.363A21.194,21.194,0,0,0,16.4,21.141Zm1.521,0a21.008,21.008,0,0,0,6.09,5.826A9.843,9.843,0,0,1,19.92,29.33,20.876,20.876,0,0,0,17.921,21.141Zm.764-1.321a21.037,21.037,0,0,0,8.089-2.363,9.921,9.921,0,0,1,0,4.726A21.037,21.037,0,0,0,18.685,19.82Z" transform="translate(14541.906 2098.712)"/>
</svg>
